<svg width="100" height="100" viewBox="0 0 100 100" fill="none" xmlns="http://www.w3.org/2000/svg">
<rect width="100" height="100" rx="10" fill="#7CB9E8"/>
<path d="M15.6582 78L32.791 50.1094L16.5879 23.6133H29.3379L35.1152 34.6367C35.2923 34.9466 35.8678 36.0091 36.8418 37.8242C37.8158 39.6393 38.5241 41.0117 38.9668 41.9414H39.2324C40.1621 40.082 41.446 37.6471 43.084 34.6367L48.9277 23.6133H61.6777L45.4082 50.1094L62.6074 78H49.9902L43.2832 65.8477C42.7077 64.8737 41.9551 63.5234 41.0254 61.7969C40.0957 60.0703 39.498 58.9635 39.2324 58.4766H38.9668C38.8783 58.6536 38.3027 59.7383 37.2402 61.7305C36.222 63.6784 35.4694 65.0508 34.9824 65.8477L28.3418 78H15.6582Z" fill="black"/>
<path d="M15.6582 78L14.8061 77.4766L13.8703 79H15.6582V78ZM32.791 50.1094L33.6431 50.6328L33.9639 50.1106L33.6441 49.5877L32.791 50.1094ZM16.5879 23.6133V22.6133H14.8042L15.7348 24.135L16.5879 23.6133ZM29.3379 23.6133L30.2236 23.1491L29.9428 22.6133H29.3379V23.6133ZM35.1152 34.6367L34.2295 35.1009L34.238 35.1171L34.247 35.1329L35.1152 34.6367ZM38.9668 41.9414L38.0639 42.3713L38.3354 42.9414H38.9668V41.9414ZM39.2324 41.9414V42.9414H39.8505L40.1268 42.3886L39.2324 41.9414ZM43.084 34.6367L43.9624 35.1147L43.9675 35.1051L43.084 34.6367ZM48.9277 23.6133V22.6133H48.326L48.0442 23.1449L48.9277 23.6133ZM61.6777 23.6133L62.5299 24.1365L63.4652 22.6133H61.6777V23.6133ZM45.4082 50.1094L44.556 49.5861L44.234 50.1105L44.557 50.6343L45.4082 50.1094ZM62.6074 78V79H64.3989L63.4586 77.4751L62.6074 78ZM49.9902 78L49.1147 78.4832L49.4 79H49.9902V78ZM43.2832 65.8477L44.1587 65.3645L44.1516 65.3516L44.1441 65.3389L43.2832 65.8477ZM39.2324 58.4766L40.1103 57.9977L39.8261 57.4766H39.2324V58.4766ZM38.9668 58.4766V57.4766H38.3488L38.0724 58.0293L38.9668 58.4766ZM37.2402 61.7305L36.3579 61.2599L36.354 61.2672L37.2402 61.7305ZM34.9824 65.8477L34.1291 65.3262L34.1165 65.3469L34.1049 65.3681L34.9824 65.8477ZM28.3418 78V79H28.9349L29.2193 78.4795L28.3418 78ZM16.5103 78.5234L33.6431 50.6328L31.9389 49.586L14.8061 77.4766L16.5103 78.5234ZM33.6441 49.5877L17.441 23.0916L15.7348 24.135L31.9379 50.6311L33.6441 49.5877ZM16.5879 24.6133H29.3379V22.6133H16.5879V24.6133ZM28.4522 24.0775L34.2295 35.1009L36.001 34.1725L30.2236 23.1491L28.4522 24.0775ZM34.247 35.1329C34.4156 35.428 34.9829 36.4748 35.9606 38.297L37.723 37.3514C36.7528 35.5434 36.169 34.4652 35.9835 34.1406L34.247 35.1329ZM35.9606 38.297C36.9329 40.109 37.6319 41.4642 38.0639 42.3713L39.8697 41.5115C39.4162 40.5593 38.6986 39.1696 37.723 37.3514L35.9606 38.297ZM38.9668 42.9414H39.2324V40.9414H38.9668V42.9414ZM40.1268 42.3886C41.0491 40.544 42.3268 38.1205 43.9624 35.1147L42.2056 34.1588C40.5651 37.1738 39.2751 39.62 38.338 41.4942L40.1268 42.3886ZM43.9675 35.1051L49.8113 24.0817L48.0442 23.1449L42.2005 34.1683L43.9675 35.1051ZM48.9277 24.6133H61.6777V22.6133H48.9277V24.6133ZM60.8256 23.09L44.556 49.5861L46.2604 50.6326L62.5299 24.1365L60.8256 23.09ZM44.557 50.6343L61.7563 78.5249L63.4586 77.4751L46.2594 49.5845L44.557 50.6343ZM62.6074 77H49.9902V79H62.6074V77ZM50.8657 77.5168L44.1587 65.3645L42.4077 66.3309L49.1147 78.4832L50.8657 77.5168ZM44.1441 65.3389C43.5785 64.3817 42.8331 63.0448 41.9059 61.3228L40.1449 62.271C41.0771 64.0021 41.8369 65.3657 42.4223 66.3564L44.1441 65.3389ZM41.9059 61.3228C40.9765 59.5969 40.3775 58.4875 40.1103 57.9977L38.3545 58.9554C38.6186 59.4395 39.2149 60.5437 40.1449 62.271L41.9059 61.3228ZM39.2324 57.4766H38.9668V59.4766H39.2324V57.4766ZM38.0724 58.0293C37.9916 58.1909 37.4261 59.257 36.3579 61.2599L38.1226 62.2011C39.1794 60.2196 39.7649 59.1163 39.8612 58.9238L38.0724 58.0293ZM36.354 61.2672C35.3361 63.2146 34.597 64.5606 34.1291 65.3262L35.8357 66.3691C36.3418 65.5409 37.1079 64.1422 38.1265 62.1937L36.354 61.2672ZM34.1049 65.3681L27.4643 77.5205L29.2193 78.4795L35.86 66.3272L34.1049 65.3681ZM28.3418 77H15.6582V79H28.3418V77Z" fill="black"/>
<circle cx="75.5" cy="72.5" r="8.5" fill="black"/>
</svg>
